<?xml version="1.0" encoding="UTF-8" standalone="no"?>
<!DOCTYPE svg PUBLIC "-//W3C//DTD SVG 1.1//EN"
 "http://www.w3.org/Graphics/SVG/1.1/DTD/svg11.dtd">
<!-- Generated by graphviz version 2.44.0 (0)
 -->
<!-- Title: snakemake_dag Pages: 1 -->
<svg width="527pt" height="332pt"
 viewBox="0.00 0.00 527.00 332.00" xmlns="http://www.w3.org/2000/svg" xmlns:xlink="http://www.w3.org/1999/xlink">
<g id="graph0" class="graph" transform="scale(1 1) rotate(0) translate(4 328)">
<title>snakemake_dag</title>
<polygon fill="white" stroke="transparent" points="-4,4 -4,-328 523,-328 523,4 -4,4"/>
<!-- 0 -->
<g id="node1" class="node">
<title>0</title>
<path fill="none" stroke="#d89556" stroke-width="2" d="M379,-36C379,-36 281,-36 281,-36 275,-36 269,-30 269,-24 269,-24 269,-12 269,-12 269,-6 275,0 281,0 281,0 379,0 379,0 385,0 391,-6 391,-12 391,-12 391,-24 391,-24 391,-30 385,-36 379,-36"/>
<text text-anchor="middle" x="330" y="-15.5" font-family="sans" font-size="10.00">merge_masked_fasta</text>
</g>
<!-- 1 -->
<g id="node2" class="node">
<title>1</title>
<path fill="none" stroke="#56d8d8" stroke-width="2" d="M170,-108C170,-108 102,-108 102,-108 96,-108 90,-102 90,-96 90,-96 90,-84 90,-84 90,-78 96,-72 102,-72 102,-72 170,-72 170,-72 176,-72 182,-78 182,-84 182,-84 182,-96 182,-96 182,-102 176,-108 170,-108"/>
<text text-anchor="middle" x="136" y="-87.5" font-family="sans" font-size="10.00">mask_modeled</text>
</g>
<!-- 1&#45;&gt;0 -->
<g id="edge1" class="edge">
<title>1&#45;&gt;0</title>
<path fill="none" stroke="grey" stroke-width="2" d="M182.47,-72.23C209.66,-62.42 244.2,-49.96 273.03,-39.56"/>
<polygon fill="grey" stroke="grey" stroke-width="2" points="274.35,-42.8 282.56,-36.12 271.97,-36.22 274.35,-42.8"/>
</g>
<!-- 16 -->
<g id="node17" class="node">
<title>16</title>
<path fill="none" stroke="#d85656" stroke-width="2" d="M238.5,-36C238.5,-36 181.5,-36 181.5,-36 175.5,-36 169.5,-30 169.5,-24 169.5,-24 169.5,-12 169.5,-12 169.5,-6 175.5,0 181.5,0 181.5,0 238.5,0 238.5,0 244.5,0 250.5,-6 250.5,-12 250.5,-12 250.5,-24 250.5,-24 250.5,-30 244.5,-36 238.5,-36"/>
<text text-anchor="middle" x="210" y="-15.5" font-family="sans" font-size="10.00">merge_te_gff</text>
</g>
<!-- 1&#45;&gt;16 -->
<g id="edge22" class="edge">
<title>1&#45;&gt;16</title>
<path fill="none" stroke="grey" stroke-width="2" d="M154.29,-71.7C163.43,-63.05 174.64,-52.45 184.6,-43.03"/>
<polygon fill="grey" stroke="grey" stroke-width="2" points="187.06,-45.52 191.92,-36.1 182.25,-40.43 187.06,-45.52"/>
</g>
<!-- 2 -->
<g id="node3" class="node">
<title>2</title>
<path fill="none" stroke="#d6d856" stroke-width="2" d="M59,-180C59,-180 15,-180 15,-180 9,-180 3,-174 3,-168 3,-168 3,-156 3,-156 3,-150 9,-144 15,-144 15,-144 59,-144 59,-144 65,-144 71,-150 71,-156 71,-156 71,-168 71,-168 71,-174 65,-180 59,-180"/>
<text text-anchor="middle" x="37" y="-159.5" font-family="sans" font-size="10.00">mask_trep</text>
</g>
<!-- 2&#45;&gt;1 -->
<g id="edge4" class="edge">
<title>2&#45;&gt;1</title>
<path fill="none" stroke="grey" stroke-width="2" d="M61.22,-143.88C73.92,-134.89 89.66,-123.76 103.42,-114.03"/>
<polygon fill="grey" stroke="grey" stroke-width="2" points="105.54,-116.82 111.69,-108.19 101.5,-111.11 105.54,-116.82"/>
</g>
<!-- 2&#45;&gt;16 -->
<g id="edge19" class="edge">
<title>2&#45;&gt;16</title>
<path fill="none" stroke="grey" stroke-width="2" d="M41.52,-143.68C47.49,-123.91 59.83,-91.75 81,-72 102.82,-51.64 133.53,-38.6 159.52,-30.55"/>
<polygon fill="grey" stroke="grey" stroke-width="2" points="160.6,-33.88 169.21,-27.71 158.63,-27.16 160.6,-33.88"/>
</g>
<!-- 3 -->
<g id="node4" class="node">
<title>3</title>
<path fill="none" stroke="#97d856" stroke-width="2" d="M70,-252C70,-252 12,-252 12,-252 6,-252 0,-246 0,-240 0,-240 0,-228 0,-228 0,-222 6,-216 12,-216 12,-216 70,-216 70,-216 76,-216 82,-222 82,-228 82,-228 82,-240 82,-240 82,-246 76,-252 70,-252"/>
<text text-anchor="middle" x="41" y="-231.5" font-family="sans" font-size="10.00">mask_simple</text>
</g>
<!-- 3&#45;&gt;2 -->
<g id="edge6" class="edge">
<title>3&#45;&gt;2</title>
<path fill="none" stroke="grey" stroke-width="2" d="M40.01,-215.7C39.57,-207.98 39.04,-198.71 38.55,-190.11"/>
<polygon fill="grey" stroke="grey" stroke-width="2" points="42.04,-189.89 37.98,-180.1 35.05,-190.29 42.04,-189.89"/>
</g>
<!-- 4 -->
<g id="node5" class="node">
<title>4</title>
<path fill="none" stroke="#569ad8" stroke-width="2" stroke-dasharray="5,2" d="M132,-324C132,-324 40,-324 40,-324 34,-324 28,-318 28,-312 28,-312 28,-300 28,-300 28,-294 34,-288 40,-288 40,-288 132,-288 132,-288 138,-288 144,-294 144,-300 144,-300 144,-312 144,-312 144,-318 138,-324 132,-324"/>
<text text-anchor="middle" x="86" y="-309" font-family="sans" font-size="10.00">subset_subgenomes</text>
<text text-anchor="middle" x="86" y="-298" font-family="sans" font-size="10.00">subgenome: A</text>
</g>
<!-- 4&#45;&gt;3 -->
<g id="edge7" class="edge">
<title>4&#45;&gt;3</title>
<path fill="none" stroke="grey" stroke-width="2" d="M74.88,-287.7C69.64,-279.56 63.3,-269.69 57.52,-260.7"/>
<polygon fill="grey" stroke="grey" stroke-width="2" points="60.35,-258.62 52,-252.1 54.46,-262.41 60.35,-258.62"/>
</g>
<!-- 5 -->
<g id="node6" class="node">
<title>5</title>
<path fill="none" stroke="#56d89a" stroke-width="2" d="M171,-180C171,-180 101,-180 101,-180 95,-180 89,-174 89,-168 89,-168 89,-156 89,-156 89,-150 95,-144 101,-144 101,-144 171,-144 171,-144 177,-144 183,-150 183,-156 183,-156 183,-168 183,-168 183,-174 177,-180 171,-180"/>
<text text-anchor="middle" x="136" y="-159.5" font-family="sans" font-size="10.00">repeat_modeler</text>
</g>
<!-- 4&#45;&gt;5 -->
<g id="edge8" class="edge">
<title>4&#45;&gt;5</title>
<path fill="none" stroke="grey" stroke-width="2" d="M92.03,-287.87C100.63,-263.46 116.48,-218.43 126.62,-189.64"/>
<polygon fill="grey" stroke="grey" stroke-width="2" points="129.93,-190.78 129.95,-180.19 123.32,-188.46 129.93,-190.78"/>
</g>
<!-- 5&#45;&gt;1 -->
<g id="edge5" class="edge">
<title>5&#45;&gt;1</title>
<path fill="none" stroke="grey" stroke-width="2" d="M136,-143.7C136,-135.98 136,-126.71 136,-118.11"/>
<polygon fill="grey" stroke="grey" stroke-width="2" points="139.5,-118.1 136,-108.1 132.5,-118.1 139.5,-118.1"/>
</g>
<!-- 6 -->
<g id="node7" class="node">
<title>6</title>
<path fill="none" stroke="#56d8d8" stroke-width="2" d="M466,-108C466,-108 398,-108 398,-108 392,-108 386,-102 386,-96 386,-96 386,-84 386,-84 386,-78 392,-72 398,-72 398,-72 466,-72 466,-72 472,-72 478,-78 478,-84 478,-84 478,-96 478,-96 478,-102 472,-108 466,-108"/>
<text text-anchor="middle" x="432" y="-87.5" font-family="sans" font-size="10.00">mask_modeled</text>
</g>
<!-- 6&#45;&gt;0 -->
<g id="edge2" class="edge">
<title>6&#45;&gt;0</title>
<path fill="none" stroke="grey" stroke-width="2" d="M407.05,-71.88C393.96,-62.89 377.74,-51.76 363.56,-42.03"/>
<polygon fill="grey" stroke="grey" stroke-width="2" points="365.27,-38.96 355.05,-36.19 361.31,-44.73 365.27,-38.96"/>
</g>
<!-- 6&#45;&gt;16 -->
<g id="edge23" class="edge">
<title>6&#45;&gt;16</title>
<path fill="none" stroke="grey" stroke-width="2" d="M385.89,-75.19C353.36,-65.35 308.54,-51.62 260.31,-36.06"/>
<polygon fill="grey" stroke="grey" stroke-width="2" points="261.22,-32.67 250.63,-32.92 259.06,-39.33 261.22,-32.67"/>
</g>
<!-- 7 -->
<g id="node8" class="node">
<title>7</title>
<path fill="none" stroke="#d6d856" stroke-width="2" d="M395,-180C395,-180 351,-180 351,-180 345,-180 339,-174 339,-168 339,-168 339,-156 339,-156 339,-150 345,-144 351,-144 351,-144 395,-144 395,-144 401,-144 407,-150 407,-156 407,-156 407,-168 407,-168 407,-174 401,-180 395,-180"/>
<text text-anchor="middle" x="373" y="-159.5" font-family="sans" font-size="10.00">mask_trep</text>
</g>
<!-- 7&#45;&gt;6 -->
<g id="edge9" class="edge">
<title>7&#45;&gt;6</title>
<path fill="none" stroke="grey" stroke-width="2" d="M387.58,-143.7C394.66,-135.3 403.28,-125.07 411.05,-115.86"/>
<polygon fill="grey" stroke="grey" stroke-width="2" points="413.81,-118.01 417.58,-108.1 408.46,-113.49 413.81,-118.01"/>
</g>
<!-- 7&#45;&gt;16 -->
<g id="edge20" class="edge">
<title>7&#45;&gt;16</title>
<path fill="none" stroke="grey" stroke-width="2" d="M370.59,-143.73C366.98,-124.01 358.4,-91.89 339,-72 333,-65.85 293.97,-50.22 260.4,-37.51"/>
<polygon fill="grey" stroke="grey" stroke-width="2" points="261.25,-34.09 250.66,-33.85 258.78,-40.64 261.25,-34.09"/>
</g>
<!-- 8 -->
<g id="node9" class="node">
<title>8</title>
<path fill="none" stroke="#97d856" stroke-width="2" d="M432,-252C432,-252 374,-252 374,-252 368,-252 362,-246 362,-240 362,-240 362,-228 362,-228 362,-222 368,-216 374,-216 374,-216 432,-216 432,-216 438,-216 444,-222 444,-228 444,-228 444,-240 444,-240 444,-246 438,-252 432,-252"/>
<text text-anchor="middle" x="403" y="-231.5" font-family="sans" font-size="10.00">mask_simple</text>
</g>
<!-- 8&#45;&gt;7 -->
<g id="edge11" class="edge">
<title>8&#45;&gt;7</title>
<path fill="none" stroke="grey" stroke-width="2" d="M395.58,-215.7C392.21,-207.81 388.13,-198.3 384.38,-189.55"/>
<polygon fill="grey" stroke="grey" stroke-width="2" points="387.49,-187.92 380.33,-180.1 381.05,-190.67 387.49,-187.92"/>
</g>
<!-- 9 -->
<g id="node10" class="node">
<title>9</title>
<path fill="none" stroke="#569ad8" stroke-width="2" stroke-dasharray="5,2" d="M483,-324C483,-324 391,-324 391,-324 385,-324 379,-318 379,-312 379,-312 379,-300 379,-300 379,-294 385,-288 391,-288 391,-288 483,-288 483,-288 489,-288 495,-294 495,-300 495,-300 495,-312 495,-312 495,-318 489,-324 483,-324"/>
<text text-anchor="middle" x="437" y="-309" font-family="sans" font-size="10.00">subset_subgenomes</text>
<text text-anchor="middle" x="437" y="-298" font-family="sans" font-size="10.00">subgenome: B</text>
</g>
<!-- 9&#45;&gt;8 -->
<g id="edge12" class="edge">
<title>9&#45;&gt;8</title>
<path fill="none" stroke="grey" stroke-width="2" d="M428.6,-287.7C424.73,-279.73 420.05,-270.1 415.76,-261.26"/>
<polygon fill="grey" stroke="grey" stroke-width="2" points="418.83,-259.57 411.31,-252.1 412.53,-262.63 418.83,-259.57"/>
</g>
<!-- 10 -->
<g id="node11" class="node">
<title>10</title>
<path fill="none" stroke="#56d89a" stroke-width="2" d="M507,-180C507,-180 437,-180 437,-180 431,-180 425,-174 425,-168 425,-168 425,-156 425,-156 425,-150 431,-144 437,-144 437,-144 507,-144 507,-144 513,-144 519,-150 519,-156 519,-156 519,-168 519,-168 519,-174 513,-180 507,-180"/>
<text text-anchor="middle" x="472" y="-159.5" font-family="sans" font-size="10.00">repeat_modeler</text>
</g>
<!-- 9&#45;&gt;10 -->
<g id="edge13" class="edge">
<title>9&#45;&gt;10</title>
<path fill="none" stroke="grey" stroke-width="2" d="M442.55,-287.92C445.81,-277.58 449.89,-264.1 453,-252 458.28,-231.47 463.24,-208.02 466.77,-190.34"/>
<polygon fill="grey" stroke="grey" stroke-width="2" points="470.28,-190.65 468.78,-180.16 463.41,-189.3 470.28,-190.65"/>
</g>
<!-- 10&#45;&gt;6 -->
<g id="edge10" class="edge">
<title>10&#45;&gt;6</title>
<path fill="none" stroke="grey" stroke-width="2" d="M462.11,-143.7C457.51,-135.64 451.94,-125.89 446.85,-116.98"/>
<polygon fill="grey" stroke="grey" stroke-width="2" points="449.77,-115.05 441.77,-108.1 443.7,-118.52 449.77,-115.05"/>
</g>
<!-- 11 -->
<g id="node12" class="node">
<title>11</title>
<path fill="none" stroke="#56d8d8" stroke-width="2" d="M318,-108C318,-108 250,-108 250,-108 244,-108 238,-102 238,-96 238,-96 238,-84 238,-84 238,-78 244,-72 250,-72 250,-72 318,-72 318,-72 324,-72 330,-78 330,-84 330,-84 330,-96 330,-96 330,-102 324,-108 318,-108"/>
<text text-anchor="middle" x="284" y="-87.5" font-family="sans" font-size="10.00">mask_modeled</text>
</g>
<!-- 11&#45;&gt;0 -->
<g id="edge3" class="edge">
<title>11&#45;&gt;0</title>
<path fill="none" stroke="grey" stroke-width="2" d="M295.37,-71.7C300.72,-63.56 307.2,-53.69 313.11,-44.7"/>
<polygon fill="grey" stroke="grey" stroke-width="2" points="316.19,-46.38 318.76,-36.1 310.34,-42.54 316.19,-46.38"/>
</g>
<!-- 11&#45;&gt;16 -->
<g id="edge24" class="edge">
<title>11&#45;&gt;16</title>
<path fill="none" stroke="grey" stroke-width="2" d="M265.71,-71.7C256.57,-63.05 245.36,-52.45 235.4,-43.03"/>
<polygon fill="grey" stroke="grey" stroke-width="2" points="237.75,-40.43 228.08,-36.1 232.94,-45.52 237.75,-40.43"/>
</g>
<!-- 12 -->
<g id="node13" class="node">
<title>12</title>
<path fill="none" stroke="#d6d856" stroke-width="2" d="M257,-180C257,-180 213,-180 213,-180 207,-180 201,-174 201,-168 201,-168 201,-156 201,-156 201,-150 207,-144 213,-144 213,-144 257,-144 257,-144 263,-144 269,-150 269,-156 269,-156 269,-168 269,-168 269,-174 263,-180 257,-180"/>
<text text-anchor="middle" x="235" y="-159.5" font-family="sans" font-size="10.00">mask_trep</text>
</g>
<!-- 12&#45;&gt;11 -->
<g id="edge14" class="edge">
<title>12&#45;&gt;11</title>
<path fill="none" stroke="grey" stroke-width="2" d="M247.11,-143.7C252.87,-135.47 259.86,-125.48 266.21,-116.42"/>
<polygon fill="grey" stroke="grey" stroke-width="2" points="269.16,-118.3 272.03,-108.1 263.42,-114.29 269.16,-118.3"/>
</g>
<!-- 12&#45;&gt;16 -->
<g id="edge21" class="edge">
<title>12&#45;&gt;16</title>
<path fill="none" stroke="grey" stroke-width="2" d="M231.98,-143.87C227.72,-119.67 219.9,-75.21 214.82,-46.39"/>
<polygon fill="grey" stroke="grey" stroke-width="2" points="218.21,-45.43 213.03,-36.19 211.31,-46.64 218.21,-45.43"/>
</g>
<!-- 13 -->
<g id="node14" class="node">
<title>13</title>
<path fill="none" stroke="#97d856" stroke-width="2" d="M220,-252C220,-252 162,-252 162,-252 156,-252 150,-246 150,-240 150,-240 150,-228 150,-228 150,-222 156,-216 162,-216 162,-216 220,-216 220,-216 226,-216 232,-222 232,-228 232,-228 232,-240 232,-240 232,-246 226,-252 220,-252"/>
<text text-anchor="middle" x="191" y="-231.5" font-family="sans" font-size="10.00">mask_simple</text>
</g>
<!-- 13&#45;&gt;12 -->
<g id="edge16" class="edge">
<title>13&#45;&gt;12</title>
<path fill="none" stroke="grey" stroke-width="2" d="M201.88,-215.7C206.99,-207.56 213.2,-197.69 218.84,-188.7"/>
<polygon fill="grey" stroke="grey" stroke-width="2" points="221.89,-190.43 224.25,-180.1 215.96,-186.71 221.89,-190.43"/>
</g>
<!-- 14 -->
<g id="node15" class="node">
<title>14</title>
<path fill="none" stroke="#569ad8" stroke-width="2" stroke-dasharray="5,2" d="M268,-324C268,-324 176,-324 176,-324 170,-324 164,-318 164,-312 164,-312 164,-300 164,-300 164,-294 170,-288 176,-288 176,-288 268,-288 268,-288 274,-288 280,-294 280,-300 280,-300 280,-312 280,-312 280,-318 274,-324 268,-324"/>
<text text-anchor="middle" x="222" y="-309" font-family="sans" font-size="10.00">subset_subgenomes</text>
<text text-anchor="middle" x="222" y="-298" font-family="sans" font-size="10.00">subgenome: D</text>
</g>
<!-- 14&#45;&gt;13 -->
<g id="edge17" class="edge">
<title>14&#45;&gt;13</title>
<path fill="none" stroke="grey" stroke-width="2" d="M214.34,-287.7C210.81,-279.73 206.54,-270.1 202.63,-261.26"/>
<polygon fill="grey" stroke="grey" stroke-width="2" points="205.82,-259.83 198.57,-252.1 199.42,-262.67 205.82,-259.83"/>
</g>
<!-- 15 -->
<g id="node16" class="node">
<title>15</title>
<path fill="none" stroke="#56d89a" stroke-width="2" d="M332,-252C332,-252 262,-252 262,-252 256,-252 250,-246 250,-240 250,-240 250,-228 250,-228 250,-222 256,-216 262,-216 262,-216 332,-216 332,-216 338,-216 344,-222 344,-228 344,-228 344,-240 344,-240 344,-246 338,-252 332,-252"/>
<text text-anchor="middle" x="297" y="-231.5" font-family="sans" font-size="10.00">repeat_modeler</text>
</g>
<!-- 14&#45;&gt;15 -->
<g id="edge18" class="edge">
<title>14&#45;&gt;15</title>
<path fill="none" stroke="grey" stroke-width="2" d="M240.54,-287.7C249.8,-279.05 261.16,-268.45 271.26,-259.03"/>
<polygon fill="grey" stroke="grey" stroke-width="2" points="273.75,-261.49 278.67,-252.1 268.98,-256.37 273.75,-261.49"/>
</g>
<!-- 15&#45;&gt;11 -->
<g id="edge15" class="edge">
<title>15&#45;&gt;11</title>
<path fill="none" stroke="grey" stroke-width="2" d="M295.43,-215.87C293.22,-191.67 289.15,-147.21 286.51,-118.39"/>
<polygon fill="grey" stroke="grey" stroke-width="2" points="289.97,-117.83 285.57,-108.19 283,-118.47 289.97,-117.83"/>
</g>
</g>
</svg>
