<?xml version="1.0" encoding="UTF-8" standalone="no"?>
<!DOCTYPE svg PUBLIC "-//W3C//DTD SVG 1.1//EN"
 "http://www.w3.org/Graphics/SVG/1.1/DTD/svg11.dtd">
<!-- Generated by graphviz version 2.44.0 (0)
 -->
<!-- Title: snakemake_dag Pages: 1 -->
<svg width="830pt" height="332pt"
 viewBox="0.00 0.00 830.00 332.00" xmlns="http://www.w3.org/2000/svg" xmlns:xlink="http://www.w3.org/1999/xlink">
<g id="graph0" class="graph" transform="scale(1 1) rotate(0) translate(4 328)">
<title>snakemake_dag</title>
<polygon fill="white" stroke="transparent" points="-4,4 -4,-328 826,-328 826,4 -4,4"/>
<!-- 0 -->
<g id="node1" class="node">
<title>0</title>
<path fill="none" stroke="#c6d856" stroke-width="2" stroke-dasharray="5,2" d="M421,-36C421,-36 391,-36 391,-36 385,-36 379,-30 379,-24 379,-24 379,-12 379,-12 379,-6 385,0 391,0 391,0 421,0 421,0 427,0 433,-6 433,-12 433,-12 433,-24 433,-24 433,-30 427,-36 421,-36"/>
<text text-anchor="middle" x="406" y="-15.5" font-family="sans" font-size="10.00">all</text>
</g>
<!-- 1 -->
<g id="node2" class="node">
<title>1</title>
<path fill="none" stroke="#56d8c9" stroke-width="2" stroke-dasharray="5,2" d="M395,-108C395,-108 297,-108 297,-108 291,-108 285,-102 285,-96 285,-96 285,-84 285,-84 285,-78 291,-72 297,-72 297,-72 395,-72 395,-72 401,-72 407,-78 407,-84 407,-84 407,-96 407,-96 407,-102 401,-108 395,-108"/>
<text text-anchor="middle" x="346" y="-87.5" font-family="sans" font-size="10.00">merge_masked_fasta</text>
</g>
<!-- 1&#45;&gt;0 -->
<g id="edge1" class="edge">
<title>1&#45;&gt;0</title>
<path fill="none" stroke="grey" stroke-width="2" d="M360.83,-71.7C368.02,-63.3 376.8,-53.07 384.69,-43.86"/>
<polygon fill="grey" stroke="grey" stroke-width="2" points="387.49,-45.97 391.34,-36.1 382.17,-41.42 387.49,-45.97"/>
</g>
<!-- 2 -->
<g id="node3" class="node">
<title>2</title>
<path fill="none" stroke="#56a2d8" stroke-width="2" stroke-dasharray="5,2" d="M198.5,-180C198.5,-180 115.5,-180 115.5,-180 109.5,-180 103.5,-174 103.5,-168 103.5,-168 103.5,-156 103.5,-156 103.5,-150 109.5,-144 115.5,-144 115.5,-144 198.5,-144 198.5,-144 204.5,-144 210.5,-150 210.5,-156 210.5,-156 210.5,-168 210.5,-168 210.5,-174 204.5,-180 198.5,-180"/>
<text text-anchor="middle" x="157" y="-159.5" font-family="sans" font-size="10.00">mask_2_rmodeled</text>
</g>
<!-- 2&#45;&gt;1 -->
<g id="edge3" class="edge">
<title>2&#45;&gt;1</title>
<path fill="none" stroke="grey" stroke-width="2" d="M203.23,-143.88C229.53,-134.14 262.64,-121.87 290.36,-111.61"/>
<polygon fill="grey" stroke="grey" stroke-width="2" points="291.75,-114.82 299.92,-108.07 289.32,-108.26 291.75,-114.82"/>
</g>
<!-- 18 -->
<g id="node19" class="node">
<title>18</title>
<path fill="none" stroke="#78d856" stroke-width="2" stroke-dasharray="5,2" d="M494.5,-108C494.5,-108 437.5,-108 437.5,-108 431.5,-108 425.5,-102 425.5,-96 425.5,-96 425.5,-84 425.5,-84 425.5,-78 431.5,-72 437.5,-72 437.5,-72 494.5,-72 494.5,-72 500.5,-72 506.5,-78 506.5,-84 506.5,-84 506.5,-96 506.5,-96 506.5,-102 500.5,-108 494.5,-108"/>
<text text-anchor="middle" x="466" y="-87.5" font-family="sans" font-size="10.00">merge_te_gff</text>
</g>
<!-- 2&#45;&gt;18 -->
<g id="edge27" class="edge">
<title>2&#45;&gt;18</title>
<path fill="none" stroke="grey" stroke-width="2" d="M210.82,-147.64C216.28,-146.37 221.74,-145.14 227,-144 307.55,-126.56 331.6,-129.56 415.76,-107.85"/>
<polygon fill="grey" stroke="grey" stroke-width="2" points="416.7,-111.22 425.49,-105.3 414.92,-104.45 416.7,-111.22"/>
</g>
<!-- 3 -->
<g id="node4" class="node">
<title>3</title>
<path fill="none" stroke="#d8a456" stroke-width="2" stroke-dasharray="5,2" d="M180,-252C180,-252 124,-252 124,-252 118,-252 112,-246 112,-240 112,-240 112,-228 112,-228 112,-222 118,-216 124,-216 124,-216 180,-216 180,-216 186,-216 192,-222 192,-228 192,-228 192,-240 192,-240 192,-246 186,-252 180,-252"/>
<text text-anchor="middle" x="152" y="-231.5" font-family="sans" font-size="10.00">mask_1_trep</text>
</g>
<!-- 3&#45;&gt;2 -->
<g id="edge7" class="edge">
<title>3&#45;&gt;2</title>
<path fill="none" stroke="grey" stroke-width="2" d="M153.24,-215.7C153.79,-207.98 154.45,-198.71 155.06,-190.11"/>
<polygon fill="grey" stroke="grey" stroke-width="2" points="158.56,-190.33 155.78,-180.1 151.57,-189.83 158.56,-190.33"/>
</g>
<!-- 3&#45;&gt;18 -->
<g id="edge23" class="edge">
<title>3&#45;&gt;18</title>
<path fill="none" stroke="grey" stroke-width="2" d="M174.2,-215.79C187.33,-205.53 204.23,-192.16 219,-180 237.98,-164.37 239.06,-155.1 261,-144 321.39,-113.44 345.87,-126.18 415.75,-107.83"/>
<polygon fill="grey" stroke="grey" stroke-width="2" points="416.73,-111.19 425.45,-105.16 414.88,-104.44 416.73,-111.19"/>
</g>
<!-- 4 -->
<g id="node5" class="node">
<title>4</title>
<path fill="none" stroke="#d85656" stroke-width="2" stroke-dasharray="5,2" d="M164,-324C164,-324 72,-324 72,-324 66,-324 60,-318 60,-312 60,-312 60,-300 60,-300 60,-294 66,-288 72,-288 72,-288 164,-288 164,-288 170,-288 176,-294 176,-300 176,-300 176,-312 176,-312 176,-318 170,-324 164,-324"/>
<text text-anchor="middle" x="118" y="-309" font-family="sans" font-size="10.00">subset_subgenomes</text>
<text text-anchor="middle" x="118" y="-298" font-family="sans" font-size="10.00">subgenome: A</text>
</g>
<!-- 4&#45;&gt;3 -->
<g id="edge9" class="edge">
<title>4&#45;&gt;3</title>
<path fill="none" stroke="grey" stroke-width="2" d="M126.4,-287.7C130.27,-279.73 134.95,-270.1 139.24,-261.26"/>
<polygon fill="grey" stroke="grey" stroke-width="2" points="142.47,-262.63 143.69,-252.1 136.17,-259.57 142.47,-262.63"/>
</g>
<!-- 5 -->
<g id="node6" class="node">
<title>5</title>
<path fill="none" stroke="#56d87b" stroke-width="2" stroke-dasharray="5,2" d="M82,-252C82,-252 12,-252 12,-252 6,-252 0,-246 0,-240 0,-240 0,-228 0,-228 0,-222 6,-216 12,-216 12,-216 82,-216 82,-216 88,-216 94,-222 94,-228 94,-228 94,-240 94,-240 94,-246 88,-252 82,-252"/>
<text text-anchor="middle" x="47" y="-231.5" font-family="sans" font-size="10.00">repeat_modeler</text>
</g>
<!-- 4&#45;&gt;5 -->
<g id="edge10" class="edge">
<title>4&#45;&gt;5</title>
<path fill="none" stroke="grey" stroke-width="2" d="M100.45,-287.7C91.77,-279.14 81.14,-268.66 71.65,-259.3"/>
<polygon fill="grey" stroke="grey" stroke-width="2" points="73.93,-256.63 64.35,-252.1 69.01,-261.62 73.93,-256.63"/>
</g>
<!-- 5&#45;&gt;2 -->
<g id="edge8" class="edge">
<title>5&#45;&gt;2</title>
<path fill="none" stroke="grey" stroke-width="2" d="M73.91,-215.88C88.16,-206.81 105.85,-195.55 121.24,-185.76"/>
<polygon fill="grey" stroke="grey" stroke-width="2" points="123.43,-188.51 129.99,-180.19 119.67,-182.61 123.43,-188.51"/>
</g>
<!-- 6 -->
<g id="node7" class="node">
<title>6</title>
<path fill="none" stroke="#56a2d8" stroke-width="2" stroke-dasharray="5,2" d="M365.5,-180C365.5,-180 282.5,-180 282.5,-180 276.5,-180 270.5,-174 270.5,-168 270.5,-168 270.5,-156 270.5,-156 270.5,-150 276.5,-144 282.5,-144 282.5,-144 365.5,-144 365.5,-144 371.5,-144 377.5,-150 377.5,-156 377.5,-156 377.5,-168 377.5,-168 377.5,-174 371.5,-180 365.5,-180"/>
<text text-anchor="middle" x="324" y="-159.5" font-family="sans" font-size="10.00">mask_2_rmodeled</text>
</g>
<!-- 6&#45;&gt;1 -->
<g id="edge4" class="edge">
<title>6&#45;&gt;1</title>
<path fill="none" stroke="grey" stroke-width="2" d="M329.44,-143.7C331.89,-135.9 334.84,-126.51 337.57,-117.83"/>
<polygon fill="grey" stroke="grey" stroke-width="2" points="340.96,-118.69 340.62,-108.1 334.29,-116.59 340.96,-118.69"/>
</g>
<!-- 6&#45;&gt;18 -->
<g id="edge28" class="edge">
<title>6&#45;&gt;18</title>
<path fill="none" stroke="grey" stroke-width="2" d="M358.74,-143.88C377.82,-134.47 401.68,-122.71 422.05,-112.67"/>
<polygon fill="grey" stroke="grey" stroke-width="2" points="423.71,-115.75 431.13,-108.19 420.61,-109.47 423.71,-115.75"/>
</g>
<!-- 7 -->
<g id="node8" class="node">
<title>7</title>
<path fill="none" stroke="#d8a456" stroke-width="2" stroke-dasharray="5,2" d="M390,-252C390,-252 334,-252 334,-252 328,-252 322,-246 322,-240 322,-240 322,-228 322,-228 322,-222 328,-216 334,-216 334,-216 390,-216 390,-216 396,-216 402,-222 402,-228 402,-228 402,-240 402,-240 402,-246 396,-252 390,-252"/>
<text text-anchor="middle" x="362" y="-231.5" font-family="sans" font-size="10.00">mask_1_trep</text>
</g>
<!-- 7&#45;&gt;6 -->
<g id="edge11" class="edge">
<title>7&#45;&gt;6</title>
<path fill="none" stroke="grey" stroke-width="2" d="M352.61,-215.7C348.24,-207.64 342.94,-197.89 338.1,-188.98"/>
<polygon fill="grey" stroke="grey" stroke-width="2" points="341.13,-187.22 333.29,-180.1 334.98,-190.56 341.13,-187.22"/>
</g>
<!-- 7&#45;&gt;18 -->
<g id="edge24" class="edge">
<title>7&#45;&gt;18</title>
<path fill="none" stroke="grey" stroke-width="2" d="M373.86,-215.78C386.37,-197.74 406.75,-168.65 425,-144 431.82,-134.79 439.46,-124.82 446.28,-116.04"/>
<polygon fill="grey" stroke="grey" stroke-width="2" points="449.13,-118.08 452.52,-108.05 443.61,-113.78 449.13,-118.08"/>
</g>
<!-- 8 -->
<g id="node9" class="node">
<title>8</title>
<path fill="none" stroke="#d85656" stroke-width="2" stroke-dasharray="5,2" d="M336,-324C336,-324 244,-324 244,-324 238,-324 232,-318 232,-312 232,-312 232,-300 232,-300 232,-294 238,-288 244,-288 244,-288 336,-288 336,-288 342,-288 348,-294 348,-300 348,-300 348,-312 348,-312 348,-318 342,-324 336,-324"/>
<text text-anchor="middle" x="290" y="-309" font-family="sans" font-size="10.00">subset_subgenomes</text>
<text text-anchor="middle" x="290" y="-298" font-family="sans" font-size="10.00">subgenome: B</text>
</g>
<!-- 8&#45;&gt;7 -->
<g id="edge13" class="edge">
<title>8&#45;&gt;7</title>
<path fill="none" stroke="grey" stroke-width="2" d="M307.8,-287.7C316.6,-279.14 327.38,-268.66 337,-259.3"/>
<polygon fill="grey" stroke="grey" stroke-width="2" points="339.68,-261.58 344.41,-252.1 334.8,-256.57 339.68,-261.58"/>
</g>
<!-- 9 -->
<g id="node10" class="node">
<title>9</title>
<path fill="none" stroke="#56d87b" stroke-width="2" stroke-dasharray="5,2" d="M292,-252C292,-252 222,-252 222,-252 216,-252 210,-246 210,-240 210,-240 210,-228 210,-228 210,-222 216,-216 222,-216 222,-216 292,-216 292,-216 298,-216 304,-222 304,-228 304,-228 304,-240 304,-240 304,-246 298,-252 292,-252"/>
<text text-anchor="middle" x="257" y="-231.5" font-family="sans" font-size="10.00">repeat_modeler</text>
</g>
<!-- 8&#45;&gt;9 -->
<g id="edge14" class="edge">
<title>8&#45;&gt;9</title>
<path fill="none" stroke="grey" stroke-width="2" d="M281.84,-287.7C278.09,-279.73 273.55,-270.1 269.38,-261.26"/>
<polygon fill="grey" stroke="grey" stroke-width="2" points="272.49,-259.66 265.06,-252.1 266.16,-262.64 272.49,-259.66"/>
</g>
<!-- 9&#45;&gt;6 -->
<g id="edge12" class="edge">
<title>9&#45;&gt;6</title>
<path fill="none" stroke="grey" stroke-width="2" d="M273.56,-215.7C281.68,-207.22 291.59,-196.86 300.47,-187.58"/>
<polygon fill="grey" stroke="grey" stroke-width="2" points="303.24,-189.75 307.63,-180.1 298.19,-184.91 303.24,-189.75"/>
</g>
<!-- 10 -->
<g id="node11" class="node">
<title>10</title>
<path fill="none" stroke="#56a2d8" stroke-width="2" stroke-dasharray="5,2" d="M529.5,-180C529.5,-180 446.5,-180 446.5,-180 440.5,-180 434.5,-174 434.5,-168 434.5,-168 434.5,-156 434.5,-156 434.5,-150 440.5,-144 446.5,-144 446.5,-144 529.5,-144 529.5,-144 535.5,-144 541.5,-150 541.5,-156 541.5,-156 541.5,-168 541.5,-168 541.5,-174 535.5,-180 529.5,-180"/>
<text text-anchor="middle" x="488" y="-159.5" font-family="sans" font-size="10.00">mask_2_rmodeled</text>
</g>
<!-- 10&#45;&gt;1 -->
<g id="edge5" class="edge">
<title>10&#45;&gt;1</title>
<path fill="none" stroke="grey" stroke-width="2" d="M453.26,-143.88C434.18,-134.47 410.32,-122.71 389.95,-112.67"/>
<polygon fill="grey" stroke="grey" stroke-width="2" points="391.39,-109.47 380.87,-108.19 388.29,-115.75 391.39,-109.47"/>
</g>
<!-- 10&#45;&gt;18 -->
<g id="edge29" class="edge">
<title>10&#45;&gt;18</title>
<path fill="none" stroke="grey" stroke-width="2" d="M482.56,-143.7C480.11,-135.9 477.16,-126.51 474.43,-117.83"/>
<polygon fill="grey" stroke="grey" stroke-width="2" points="477.71,-116.59 471.38,-108.1 471.04,-118.69 477.71,-116.59"/>
</g>
<!-- 11 -->
<g id="node12" class="node">
<title>11</title>
<path fill="none" stroke="#d8a456" stroke-width="2" stroke-dasharray="5,2" d="M600,-252C600,-252 544,-252 544,-252 538,-252 532,-246 532,-240 532,-240 532,-228 532,-228 532,-222 538,-216 544,-216 544,-216 600,-216 600,-216 606,-216 612,-222 612,-228 612,-228 612,-240 612,-240 612,-246 606,-252 600,-252"/>
<text text-anchor="middle" x="572" y="-231.5" font-family="sans" font-size="10.00">mask_1_trep</text>
</g>
<!-- 11&#45;&gt;10 -->
<g id="edge15" class="edge">
<title>11&#45;&gt;10</title>
<path fill="none" stroke="grey" stroke-width="2" d="M551.24,-215.7C540.76,-206.97 527.89,-196.24 516.5,-186.75"/>
<polygon fill="grey" stroke="grey" stroke-width="2" points="518.45,-183.82 508.53,-180.1 513.97,-189.19 518.45,-183.82"/>
</g>
<!-- 11&#45;&gt;18 -->
<g id="edge25" class="edge">
<title>11&#45;&gt;18</title>
<path fill="none" stroke="grey" stroke-width="2" d="M571.49,-215.68C570.12,-196.49 565.46,-165.42 550,-144 540.98,-131.5 528.02,-121.27 514.97,-113.25"/>
<polygon fill="grey" stroke="grey" stroke-width="2" points="516.38,-110.02 505.97,-108.04 512.88,-116.08 516.38,-110.02"/>
</g>
<!-- 12 -->
<g id="node13" class="node">
<title>12</title>
<path fill="none" stroke="#d85656" stroke-width="2" stroke-dasharray="5,2" d="M551,-324C551,-324 459,-324 459,-324 453,-324 447,-318 447,-312 447,-312 447,-300 447,-300 447,-294 453,-288 459,-288 459,-288 551,-288 551,-288 557,-288 563,-294 563,-300 563,-300 563,-312 563,-312 563,-318 557,-324 551,-324"/>
<text text-anchor="middle" x="505" y="-309" font-family="sans" font-size="10.00">subset_subgenomes</text>
<text text-anchor="middle" x="505" y="-298" font-family="sans" font-size="10.00">subgenome: D</text>
</g>
<!-- 12&#45;&gt;11 -->
<g id="edge17" class="edge">
<title>12&#45;&gt;11</title>
<path fill="none" stroke="grey" stroke-width="2" d="M521.56,-287.7C529.68,-279.22 539.59,-268.86 548.47,-259.58"/>
<polygon fill="grey" stroke="grey" stroke-width="2" points="551.24,-261.75 555.63,-252.1 546.19,-256.91 551.24,-261.75"/>
</g>
<!-- 13 -->
<g id="node14" class="node">
<title>13</title>
<path fill="none" stroke="#56d87b" stroke-width="2" stroke-dasharray="5,2" d="M502,-252C502,-252 432,-252 432,-252 426,-252 420,-246 420,-240 420,-240 420,-228 420,-228 420,-222 426,-216 432,-216 432,-216 502,-216 502,-216 508,-216 514,-222 514,-228 514,-228 514,-240 514,-240 514,-246 508,-252 502,-252"/>
<text text-anchor="middle" x="467" y="-231.5" font-family="sans" font-size="10.00">repeat_modeler</text>
</g>
<!-- 12&#45;&gt;13 -->
<g id="edge18" class="edge">
<title>12&#45;&gt;13</title>
<path fill="none" stroke="grey" stroke-width="2" d="M495.61,-287.7C491.24,-279.64 485.94,-269.89 481.1,-260.98"/>
<polygon fill="grey" stroke="grey" stroke-width="2" points="484.13,-259.22 476.29,-252.1 477.98,-262.56 484.13,-259.22"/>
</g>
<!-- 13&#45;&gt;10 -->
<g id="edge16" class="edge">
<title>13&#45;&gt;10</title>
<path fill="none" stroke="grey" stroke-width="2" d="M472.19,-215.7C474.53,-207.9 477.35,-198.51 479.95,-189.83"/>
<polygon fill="grey" stroke="grey" stroke-width="2" points="483.35,-190.69 482.87,-180.1 476.64,-188.68 483.35,-190.69"/>
</g>
<!-- 14 -->
<g id="node15" class="node">
<title>14</title>
<path fill="none" stroke="#56a2d8" stroke-width="2" stroke-dasharray="5,2" d="M706.5,-180C706.5,-180 623.5,-180 623.5,-180 617.5,-180 611.5,-174 611.5,-168 611.5,-168 611.5,-156 611.5,-156 611.5,-150 617.5,-144 623.5,-144 623.5,-144 706.5,-144 706.5,-144 712.5,-144 718.5,-150 718.5,-156 718.5,-156 718.5,-168 718.5,-168 718.5,-174 712.5,-180 706.5,-180"/>
<text text-anchor="middle" x="665" y="-159.5" font-family="sans" font-size="10.00">mask_2_rmodeled</text>
</g>
<!-- 14&#45;&gt;1 -->
<g id="edge6" class="edge">
<title>14&#45;&gt;1</title>
<path fill="none" stroke="grey" stroke-width="2" d="M611.47,-150.07C563.15,-140.09 489.86,-124.71 416.88,-108.17"/>
<polygon fill="grey" stroke="grey" stroke-width="2" points="417.59,-104.74 407.06,-105.94 416.03,-111.57 417.59,-104.74"/>
</g>
<!-- 14&#45;&gt;18 -->
<g id="edge30" class="edge">
<title>14&#45;&gt;18</title>
<path fill="none" stroke="grey" stroke-width="2" d="M616.57,-143.97C586.16,-133.27 547,-119.49 516.25,-108.67"/>
<polygon fill="grey" stroke="grey" stroke-width="2" points="517.17,-105.29 506.58,-105.27 514.85,-111.89 517.17,-105.29"/>
</g>
<!-- 15 -->
<g id="node16" class="node">
<title>15</title>
<path fill="none" stroke="#d8a456" stroke-width="2" stroke-dasharray="5,2" d="M810,-252C810,-252 754,-252 754,-252 748,-252 742,-246 742,-240 742,-240 742,-228 742,-228 742,-222 748,-216 754,-216 754,-216 810,-216 810,-216 816,-216 822,-222 822,-228 822,-228 822,-240 822,-240 822,-246 816,-252 810,-252"/>
<text text-anchor="middle" x="782" y="-231.5" font-family="sans" font-size="10.00">mask_1_trep</text>
</g>
<!-- 15&#45;&gt;14 -->
<g id="edge19" class="edge">
<title>15&#45;&gt;14</title>
<path fill="none" stroke="grey" stroke-width="2" d="M753.38,-215.88C738.08,-206.72 719.06,-195.34 702.58,-185.48"/>
<polygon fill="grey" stroke="grey" stroke-width="2" points="704.11,-182.32 693.73,-180.19 700.52,-188.33 704.11,-182.32"/>
</g>
<!-- 15&#45;&gt;18 -->
<g id="edge26" class="edge">
<title>15&#45;&gt;18</title>
<path fill="none" stroke="grey" stroke-width="2" d="M776.46,-215.96C768.89,-195.51 753.29,-161.77 728,-144 694.57,-120.51 583.18,-104.26 516.89,-96.4"/>
<polygon fill="grey" stroke="grey" stroke-width="2" points="516.99,-92.89 506.65,-95.21 516.18,-99.84 516.99,-92.89"/>
</g>
<!-- 16 -->
<g id="node17" class="node">
<title>16</title>
<path fill="none" stroke="#d85656" stroke-width="2" stroke-dasharray="5,2" d="M775,-324C775,-324 683,-324 683,-324 677,-324 671,-318 671,-312 671,-312 671,-300 671,-300 671,-294 677,-288 683,-288 683,-288 775,-288 775,-288 781,-288 787,-294 787,-300 787,-300 787,-312 787,-312 787,-318 781,-324 775,-324"/>
<text text-anchor="middle" x="729" y="-309" font-family="sans" font-size="10.00">subset_subgenomes</text>
<text text-anchor="middle" x="729" y="-298" font-family="sans" font-size="10.00">subgenome: ptg</text>
</g>
<!-- 16&#45;&gt;15 -->
<g id="edge21" class="edge">
<title>16&#45;&gt;15</title>
<path fill="none" stroke="grey" stroke-width="2" d="M742.1,-287.7C748.39,-279.39 756.05,-269.28 762.96,-260.14"/>
<polygon fill="grey" stroke="grey" stroke-width="2" points="765.8,-262.19 769.05,-252.1 760.22,-257.96 765.8,-262.19"/>
</g>
<!-- 17 -->
<g id="node18" class="node">
<title>17</title>
<path fill="none" stroke="#56d87b" stroke-width="2" stroke-dasharray="5,2" d="M712,-252C712,-252 642,-252 642,-252 636,-252 630,-246 630,-240 630,-240 630,-228 630,-228 630,-222 636,-216 642,-216 642,-216 712,-216 712,-216 718,-216 724,-222 724,-228 724,-228 724,-240 724,-240 724,-246 718,-252 712,-252"/>
<text text-anchor="middle" x="677" y="-231.5" font-family="sans" font-size="10.00">repeat_modeler</text>
</g>
<!-- 16&#45;&gt;17 -->
<g id="edge22" class="edge">
<title>16&#45;&gt;17</title>
<path fill="none" stroke="grey" stroke-width="2" d="M716.15,-287.7C709.97,-279.39 702.46,-269.28 695.68,-260.14"/>
<polygon fill="grey" stroke="grey" stroke-width="2" points="698.48,-258.04 689.71,-252.1 692.86,-262.22 698.48,-258.04"/>
</g>
<!-- 17&#45;&gt;14 -->
<g id="edge20" class="edge">
<title>17&#45;&gt;14</title>
<path fill="none" stroke="grey" stroke-width="2" d="M674.03,-215.7C672.71,-207.98 671.12,-198.71 669.65,-190.11"/>
<polygon fill="grey" stroke="grey" stroke-width="2" points="673.07,-189.37 667.93,-180.1 666.17,-190.55 673.07,-189.37"/>
</g>
<!-- 18&#45;&gt;0 -->
<g id="edge2" class="edge">
<title>18&#45;&gt;0</title>
<path fill="none" stroke="grey" stroke-width="2" d="M451.17,-71.7C443.98,-63.3 435.2,-53.07 427.31,-43.86"/>
<polygon fill="grey" stroke="grey" stroke-width="2" points="429.83,-41.42 420.66,-36.1 424.51,-45.97 429.83,-41.42"/>
</g>
</g>
</svg>
